# xmcd
#
# Track frame offsets:
#	150
#	12101
#	24609
#	48069
#	64418
#	81717
#	94994
#	113410
#	128528
#	140752
#	160263
#	174377
#
# Disc length: 2519 seconds
#
# Revision: 0
# Processed by: cddbd v1.4PL0 Copyright (c) Steve Scherf et al.
# Submitted via: EasyCDDAExtractor 4.6.9.1
#
DISCID=9a09d50c
DTITLE=Dale Ann Bradley - Cumberland River Dreams
DYEAR=2001
DGENRE=Bluegrass
TTITLE0=I Wish It'd Been You
TTITLE1=Thursday
TTITLE2=The Rocking Chair
TTITLE3=The Circle Is Small
TTITLE4=Granny Cat
TTITLE5=Passin' Thru
TTITLE6=Beyond A Shadow Of A Doubt
TTITLE7=Lonesome For The Mountains
TTITLE8=Planes, Trains And Automobiles
TTITLE9=Piney Rose
TTITLE10=Cumberland River Dreams
TTITLE11=Gonna Move On Out
EXTD=
EXTT0=
EXTT1=
EXTT2=
EXTT3=
EXTT4=
EXTT5=
EXTT6=
EXTT7=
EXTT8=
EXTT9=
EXTT10=
EXTT11=
PLAYORDER=
